<svg xmlns="http://www.w3.org/2000/svg" viewBox="0 0 100 160" width="100" height="160">
  <!-- Main stem -->
  <path d="M50 155 Q49 130 50 110 Q51 90 48 60" stroke="#6B8A70" stroke-width="2" fill="none" stroke-linecap="round"/>
  <!-- Branch network -->
  <path d="M50 130 Q38 122 30 110" stroke="#7A9A78" stroke-width="1.5" fill="none"/>
  <path d="M50 118 Q62 110 70 98" stroke="#7A9A78" stroke-width="1.5" fill="none"/>
  <path d="M50 106 Q36 96 28 84" stroke="#7A9A78" stroke-width="1.5" fill="none"/>
  <path d="M50 92 Q64 82 72 70" stroke="#7A9A78" stroke-width="1.5" fill="none"/>
  <path d="M49 78 Q37 68 30 56" stroke="#7A9A78" stroke-width="1.5" fill="none"/>
  <path d="M48 65 Q60 55 68 44" stroke="#7A9A78" stroke-width="1.5" fill="none"/>
  <!-- Sub-branches and tiny flowers -->
  <path d="M30 110 Q22 104 18 96" stroke="#8AAA88" stroke-width="1" fill="none"/>
  <path d="M30 110 Q26 102 28 94" stroke="#8AAA88" stroke-width="1" fill="none"/>
  <path d="M70 98 Q76 90 78 82" stroke="#8AAA88" stroke-width="1" fill="none"/>
  <path d="M70 98 Q74 90 72 82" stroke="#8AAA88" stroke-width="1" fill="none"/>
  <!-- Tiny white flowers with yellow centers -->
  <circle cx="18" cy="96" r="3.5" fill="white" stroke="#E0D8D0" stroke-width="0.5"/>
  <circle cx="18" cy="96" r="1.5" fill="#F5E070"/>
  <circle cx="28" cy="94" r="3.5" fill="white" stroke="#E0D8D0" stroke-width="0.5"/>
  <circle cx="28" cy="94" r="1.5" fill="#F5E070"/>
  <circle cx="78" cy="82" r="3.5" fill="white" stroke="#E0D8D0" stroke-width="0.5"/>
  <circle cx="78" cy="82" r="1.5" fill="#F5E070"/>
  <circle cx="72" cy="82" r="3.5" fill="white" stroke="#E0D8D0" stroke-width="0.5"/>
  <circle cx="72" cy="82" r="1.5" fill="#F5E070"/>
  <!-- More tiny flowers throughout -->
  <circle cx="30" cy="56" r="3" fill="white" stroke="#E0D8D0" stroke-width="0.5"/>
  <circle cx="30" cy="56" r="1.2" fill="#F5E070"/>
  <circle cx="20" cy="112" r="3" fill="white" stroke="#E0D8D0" stroke-width="0.5"/>
  <circle cx="20" cy="112" r="1.2" fill="#F5E070"/>
  <circle cx="68" cy="44" r="3" fill="white" stroke="#E0D8D0" stroke-width="0.5"/>
  <circle cx="68" cy="44" r="1.2" fill="#F5E070"/>
  <circle cx="38" cy="70" r="3.5" fill="white" stroke="#E0D8D0" stroke-width="0.5"/>
  <circle cx="38" cy="70" r="1.5" fill="#F5E070"/>
  <circle cx="62" cy="58" r="3.5" fill="white" stroke="#E0D8D0" stroke-width="0.5"/>
  <circle cx="62" cy="58" r="1.5" fill="#F5E070"/>
  <circle cx="75" cy="72" r="3" fill="white" stroke="#E0D8D0" stroke-width="0.5"/>
  <circle cx="75" cy="72" r="1.2" fill="#F5E070"/>
  <circle cx="24" cy="86" r="3" fill="white" stroke="#E0D8D0" stroke-width="0.5"/>
  <circle cx="24" cy="86" r="1.2" fill="#F5E070"/>
</svg>
