<svg xmlns="http://www.w3.org/2000/svg" viewBox="0 0 320 440" width="320" height="440">
  <!-- Outer back shape — darkest sage, forms the wide wing silhouette -->
  <path d="
    M 15 440
    Q 5 368 10 282
    Q 15 222 34 158
    Q 22 128 38 104
    Q 54 78 72 88
    Q 62 62 80 46
    Q 96 32 110 50
    Q 122 38 132 50
    Q 144 30 160 18
    Q 176 30 188 50
    Q 198 38 210 50
    Q 224 32 240 46
    Q 258 62 248 88
    Q 266 78 282 104
    Q 298 128 286 158
    Q 305 222 310 282
    Q 315 368 305 440
    Z
  " fill="#B2C494"/>

  <!-- Mid layer — medium sage, slightly narrower, creates fold depth -->
  <path d="
    M 42 440
    Q 34 368 38 282
    Q 42 222 58 158
    Q 52 128 66 104
    Q 80 80 95 90
    Q 88 64 104 50
    Q 118 38 130 56
    Q 140 42 152 28
    Q 156 26 160 22
    Q 164 26 168 28
    Q 180 42 190 56
    Q 202 38 216 50
    Q 232 64 225 90
    Q 240 80 255 104
    Q 268 128 262 158
    Q 278 222 282 282
    Q 286 368 278 440
    Z
  " fill="#C0D2A0"/>

  <!-- Inner layer — lightest sage, narrow center, highlights the central peaks -->
  <path d="
    M 88 440
    Q 84 380 86 305
    Q 88 260 96 225
    Q 100 195 110 172
    Q 108 148 118 128
    Q 128 108 140 112
    Q 144 94 152 78
    Q 154 72 160 62
    Q 166 72 168 78
    Q 176 94 180 112
    Q 192 108 202 128
    Q 212 148 210 172
    Q 220 195 224 225
    Q 232 260 234 305
    Q 236 380 232 440
    Z
  " fill="#CCDBAA"/>

  <!-- Fold peaks accent — subtle highlights on each peak -->
  <ellipse cx="80" cy="58" rx="14" ry="10" fill="#D2E0B0" opacity="0.7"/>
  <ellipse cx="120" cy="44" rx="12" ry="9" fill="#D4E2B2" opacity="0.7"/>
  <ellipse cx="160" cy="30" rx="12" ry="9" fill="#D8E4B4" opacity="0.8"/>
  <ellipse cx="200" cy="44" rx="12" ry="9" fill="#D4E2B2" opacity="0.7"/>
  <ellipse cx="240" cy="58" rx="14" ry="10" fill="#D2E0B0" opacity="0.7"/>

  <!-- Subtle fold shadow lines along the main folds -->
  <path d="M 110 50 Q 118 140 118 272" stroke="#A8BA88" stroke-width="1.2" fill="none" opacity="0.35"/>
  <path d="M 210 50 Q 202 140 202 272" stroke="#A8BA88" stroke-width="1.2" fill="none" opacity="0.35"/>
</svg>
