<svg xmlns="http://www.w3.org/2000/svg" viewBox="0 0 120 180" width="120" height="180">
  <!-- Stem -->
  <path d="M60 175 Q58 148 60 108" stroke="#5A7A4A" stroke-width="3" fill="none" stroke-linecap="round"/>
  <!-- Calyx -->
  <path d="M55 110 Q60 105 65 110 Q63 118 60 120 Q57 118 55 110" fill="#6B8F5A"/>
  <!-- Leaf left -->
  <path d="M60 148 Q38 138 32 120 Q46 128 60 142" fill="#6B8F5A"/>
  <!-- Leaf right -->
  <path d="M60 135 Q82 124 87 106 Q72 116 60 130" fill="#7BA06A"/>
  <!-- Ruffled petals - back layer -->
  <path d="M60 108 Q44 100 40 82 Q42 70 52 68 Q56 76 56 90 Q58 95 60 108" fill="#E06080"/>
  <path d="M60 108 Q76 100 80 82 Q78 70 68 68 Q64 76 64 90 Q62 95 60 108" fill="#D85878"/>
  <!-- Middle layer petals -->
  <path d="M60 108 Q46 95 46 76 Q50 62 58 62 Q60 72 60 90" fill="#F07090"/>
  <path d="M60 108 Q74 95 74 76 Q70 62 62 62 Q60 72 60 90" fill="#E86888"/>
  <!-- Top petals - ruffled edges -->
  <path d="M60 90 Q52 72 54 58 Q60 50 60 65" fill="#F88098" stroke="#E87088" stroke-width="0.5"/>
  <path d="M60 90 Q68 72 66 58 Q60 50 60 65" fill="#F88098" stroke="#E87088" stroke-width="0.5"/>
  <!-- Ruffle details -->
  <path d="M54 68 Q52 58 56 52 Q58 62 56 72" fill="#FFAABB" opacity="0.6"/>
  <path d="M66 68 Q68 58 64 52 Q62 62 64 72" fill="#FFAABB" opacity="0.6"/>
  <path d="M48 82 Q44 72 48 64" stroke="#FFB8C8" stroke-width="1" fill="none" opacity="0.7"/>
  <path d="M72 82 Q76 72 72 64" stroke="#FFB8C8" stroke-width="1" fill="none" opacity="0.7"/>
</svg>
