<svg xmlns="http://www.w3.org/2000/svg" viewBox="0 0 100 180" width="100" height="180">
  <!-- Main stem -->
  <path d="M50 175 Q48 155 50 140 Q52 120 48 80" stroke="#4A6840" stroke-width="2" fill="none" stroke-linecap="round"/>
  <!-- Frond stems -->
  <path d="M50 165 Q35 158 28 145" stroke="#5A7A4A" stroke-width="1.5" fill="none"/>
  <path d="M50 155 Q65 148 72 135" stroke="#5A7A4A" stroke-width="1.5" fill="none"/>
  <path d="M50 142 Q33 134 26 118" stroke="#5A7A4A" stroke-width="1.5" fill="none"/>
  <path d="M50 130 Q67 122 74 106" stroke="#5A7A4A" stroke-width="1.5" fill="none"/>
  <path d="M50 115 Q32 106 25 90" stroke="#5A7A4A" stroke-width="1.5" fill="none"/>
  <path d="M50 104 Q66 95 72 80" stroke="#5A7A4A" stroke-width="1.5" fill="none"/>
  <path d="M50 90 Q34 80 30 65" stroke="#5A7A4A" stroke-width="1.5" fill="none"/>
  <path d="M48 80 Q60 68 64 52" stroke="#5A7A4A" stroke-width="1.5" fill="none"/>
  <!-- Fan-shaped leaflets left side -->
  <path d="M28 145 Q22 138 20 130 Q24 128 30 132 Q32 138 28 145" fill="#5A9060"/>
  <path d="M26 118 Q20 111 18 103 Q22 101 28 105 Q30 111 26 118" fill="#5A9060"/>
  <path d="M25 90 Q18 82 17 74 Q21 72 27 77 Q29 83 25 90" fill="#5A9060"/>
  <path d="M30 65 Q24 57 24 49 Q28 48 33 53 Q34 59 30 65" fill="#5A9060"/>
  <!-- Fan-shaped leaflets right side -->
  <path d="M72 135 Q78 128 80 120 Q76 118 70 122 Q68 128 72 135" fill="#6BA070"/>
  <path d="M74 106 Q80 99 82 91 Q78 89 72 93 Q70 99 74 106" fill="#6BA070"/>
  <path d="M72 80 Q78 72 80 64 Q76 62 70 67 Q68 73 72 80" fill="#6BA070"/>
  <path d="M64 52 Q70 44 71 36 Q67 35 62 40 Q61 46 64 52" fill="#6BA070"/>
  <!-- Wiry black stems characteristic of maidenhair -->
  <path d="M50 165 Q40 160 33 150 Q28 147 28 145" stroke="#2C1A08" stroke-width="1" fill="none"/>
  <path d="M50 142 Q40 137 32 126 Q26 120 26 118" stroke="#2C1A08" stroke-width="1" fill="none"/>
</svg>
